<svg xmlns="http://www.w3.org/2000/svg" width="9.201" height="9.199" viewBox="0 0 9.201 9.199">

    <g id="Group_3875" data-name="Group 3875" transform="translate(-40.466 -216.802)">
        <g id="Group_3874" data-name="Group 3874">
            <g id="Group_3873" data-name="Group 3873">
                <g id="Group_3872" data-name="Group 3872">
                    <g id="Group_3871" data-name="Group 3871">
                        <g id="Group_3870" data-name="Group 3870">
                            <path id="Path_2825" data-name="Path 2825"
                                  d="M90.945,63.735c.112-.3.213-.367.54-.367h3.151a.434.434,0,0,1,.495.49q0,1.6,0,3.2a.434.434,0,0,1-.495.491H91.486c-.327,0-.428-.069-.541-.367Zm3.342,2.972V64.213H91.792v2.494Z"
                                  transform="translate(-50.479 153.434)" fill="#fff"/>
                            <path id="Path_2826" data-name="Path 2826"
                                  d="M90.945,117.545c.112-.3.213-.367.541-.367h3.153a.433.433,0,0,1,.493.493q0,1.576,0,3.152c0,.327-.068.427-.367.541H91.317a.481.481,0,0,1-.372-.372Zm.847,2.97h2.495V118.02H91.792Z"
                                  transform="translate(-50.479 104.637)" fill="#fff"/>
                            <path id="Path_2827" data-name="Path 2827"
                                  d="M146.819,121.346a5.6,5.6,0,0,1-.6-.138,2.087,2.087,0,0,1,.441-4.029,2.089,2.089,0,0,1,.554,4.142l-.162.025Zm1.371-2.1a1.253,1.253,0,1,0-1.249,1.255A1.255,1.255,0,0,0,148.19,119.249Z"
                                  transform="translate(-99.36 104.654)" fill="#fff"/>
                            <path id="Path_2829" data-name="Path 2829"
                                  d="M149,65.463q0,.8,0,1.605a.431.431,0,0,1-.485.481H145.3a.433.433,0,0,1-.486-.49q0-1.6,0-3.2a.433.433,0,0,1,.495-.49H148.5a.435.435,0,0,1,.5.5Q149,64.665,149,65.463Zm-.842-1.251h-2.495v2.494h2.495Z"
                                  transform="translate(-99.333 153.434)" fill="#fff"/>
                        </g>
                    </g>
                </g>
            </g>
        </g>
    </g>
</svg>