<svg xmlns="http://www.w3.org/2000/svg" width="138.141" height="60.024" viewBox="0 0 138.141 60.024">
  <g id="Group_3747" data-name="Group 3747" transform="translate(-40.221 -42.27)">
    <g id="Group_3745" data-name="Group 3745" transform="translate(-95.299 -82.656)">
      <path id="Path_2794" data-name="Path 2794" d="M225.159,140.832a5.45,5.45,0,0,0-5.125,3.522l-13.417,35.754a5.449,5.449,0,0,1-5.125,3.522h19.363a5.45,5.45,0,0,0,5.125-3.522L239.4,144.354a5.449,5.449,0,0,1,5.125-3.522Z" transform="translate(5.473 1.32)" fill="#243D94"/>
      <path id="Path_2795" data-name="Path 2795" d="M242.709,140.832a5.45,5.45,0,0,1,5.125,3.522l13.417,35.754a5.449,5.449,0,0,0,5.125,3.522H247.012a5.45,5.45,0,0,1-5.125-3.522l-13.417-35.754a5.449,5.449,0,0,0-5.125-3.522Z" transform="translate(7.286 1.32)" fill="#fff"/>
      <path id="Path_2796" data-name="Path 2796" d="M171.7,180.38H176l.053,0a8.1,8.1,0,0,1-2.339-.377,5.546,5.546,0,0,1-2.014.379" transform="translate(3.001 4.569)"/>
      <path id="Path_2797" data-name="Path 2797" d="M159.889,179.452l6.707-17.873-4.819-12.843H142.413l11.527,30.716a5.415,5.415,0,0,0,2.974,3.086,5.416,5.416,0,0,0,2.975-3.086" transform="translate(0.572 1.975)" fill="#fff"/>
      <path id="Path_2798" data-name="Path 2798" d="M176.661,171.6a4.893,4.893,0,0,0-2.232,4.063,4.834,4.834,0,0,0,4.829,4.8,4.895,4.895,0,0,0,3.41-1.4l-2.933-3.643Zm19.855-30.766H181.454a5.452,5.452,0,0,0-5.126,3.522l-8.86,23.61-4.556,12.144c-.048.128-.1.253-.158.378a5.457,5.457,0,0,1-4.965,3.143H177.15l-.04-.007a8.055,8.055,0,0,1-2.246-.373,6.568,6.568,0,0,1-4.892-6.114c0-.2.007-.4.017-.59,0-.087.012-.17.02-.255s.016-.19.027-.282c.012-.107.025-.212.041-.316.009-.056.018-.112.028-.167.022-.119.042-.238.068-.353.533-2.354,2.137-3.739,4.869-5.586-1.723-2.142-2.95-3.922-2.95-5.966,0-3.724,3.016-5.669,6.43-5.669,4.1,0,5.93,1.781,6.316,3.866a4.829,4.829,0,0,1,.08.885,5.431,5.431,0,0,1-1.985,4.192,27.209,27.209,0,0,1-2.953,2.3l1.433,1.754,2.946,3.608,11.333-30.2a5.45,5.45,0,0,1,5.125-3.522Zm-17.927,26.23s-2.485-2.469-2.485-4.43a2.485,2.485,0,0,1,4.971,0c0,1.961-2.485,4.43-2.485,4.43" transform="translate(1.847 1.32)" fill="#243D94"/>
      <path id="Path_2799" data-name="Path 2799" d="M199,140.832a5.449,5.449,0,0,1,5.125,3.522l13.417,35.754a5.449,5.449,0,0,0,5.125,3.522H203.306a5.45,5.45,0,0,1-5.125-3.522l-13.416-35.754a5.452,5.452,0,0,0-5.125-3.522Z" transform="translate(3.66 1.32)" fill="#fff"/>
      <path id="Path_2800" data-name="Path 2800" d="M153.906,128.216a5.1,5.1,0,0,0-1.928-2.558,4.77,4.77,0,0,0-2.5-.732,4.969,4.969,0,0,0-2.21.56l-11.753,5.332,4.253,11.334h19.363Z" transform="translate(0 0)" fill="#fff"/>
    </g>
  </g>
</svg>
