<svg xmlns="http://www.w3.org/2000/svg" width="9.708" height="9.71" viewBox="0 0 9.708 9.71">

    <g id="Group_3869" data-name="Group 3869" transform="translate(-39.437 -268.745)">
        <path id="Path_2832" data-name="Path 2832"
              d="M372.6,120.042a2.877,2.877,0,0,1-.28-.089,1.1,1.1,0,0,1-.65-1.163,2.978,2.978,0,0,1,2.081-2.673,2.926,2.926,0,0,1,.841-.143q1.829-.023,3.658,0a3,3,0,0,1,2.9,2.664.858.858,0,0,0,.02.092v.382a.277.277,0,0,0-.019.048,1.03,1.03,0,0,1-.534.745,2.672,2.672,0,0,1-.382.141Zm3.819-.679h3.629a.4.4,0,0,0,.444-.457,2.4,2.4,0,0,0-.051-.431,2.309,2.309,0,0,0-2.285-1.829q-1.735,0-3.47,0a2.98,2.98,0,0,0-.307.019,2.321,2.321,0,0,0-2.033,2.218.41.41,0,0,0,.466.479Z"
              transform="translate(-332.134 158.313)" fill="#243D94" stroke="#243D94" stroke-width="0.2"/>
        <path id="Path_2833" data-name="Path 2833"
              d="M399.49,57.845a2.377,2.377,0,1,1-2.376,2.364A2.377,2.377,0,0,1,399.49,57.845Zm0,.68a1.7,1.7,0,1,0,1.7,1.7A1.7,1.7,0,0,0,399.49,58.524Z"
              transform="translate(-355.2 211)" fill="#243D94" stroke="#243D94" stroke-width="0.2"/>
    </g>
</svg>