<svg xmlns="http://www.w3.org/2000/svg" width="34.183" height="39.277" viewBox="0 0 34.183 39.277">
    
    <g id="Group_3835" data-name="Group 3835" transform="translate(0.201 0.15)">
        <path id="Path_2834" data-name="Path 2834"
              d="M517.257,97.492c-.5-.133-1.012-.224-1.493-.4a6.265,6.265,0,0,1-3.966-7.11c.69-3.635,1.337-7.278,2.115-10.894a12.458,12.458,0,0,1,7.7-9.2c.113-.049.228-.095.341-.141-.861-2.271-.557-3.481,1.267-5-.058-.112-.117-.233-.182-.352q-1.049-1.918-2.1-3.834a1.275,1.275,0,0,1,1.2-2.037q3.881,0,7.762,0a1.277,1.277,0,0,1,1.214,2.033c-.758,1.39-1.519,2.778-2.287,4.182a3.708,3.708,0,0,1,1.373,4.8c.056.035.126.082.2.127a1.257,1.257,0,0,1,.533,1.583,1.308,1.308,0,0,1-1.513.72,18.05,18.05,0,0,0-2.992-.466,10.151,10.151,0,0,0-10.087,8.148c-.729,3.64-1.416,7.288-2.1,10.935a3.76,3.76,0,0,0,3.631,4.392c1.661.026,3.323,0,4.984.009a1.251,1.251,0,0,1,.725,2.294c-.125.082-.262.144-.393.216Zm8.775-28.535c.329,0,.66.011.989,0a1.08,1.08,0,0,0,1.047-1.009,1.022,1.022,0,0,0-.892-1.138,15.269,15.269,0,0,0-2.276,0,1.019,1.019,0,0,0-.895,1.134,1.065,1.065,0,0,0,1.038,1.015C525.372,68.968,525.7,68.957,526.032,68.957Zm-1.9-7.911c0,.041-.009.07,0,.088.532.978,1.06,1.956,1.6,2.929.161.29.456.26.631-.057q.761-1.378,1.512-2.761a1.143,1.143,0,0,0,.065-.2Z"
              transform="translate(-511.682 -58.516)" fill="currentColor" stroke="currentColor" stroke-width="0.3"/>
        <path id="Path_2835" data-name="Path 2835"
              d="M548.811,122.223a21.379,21.379,0,0,1-2.335-.471,11.627,11.627,0,0,1-8.529-9.47,11.9,11.9,0,0,1,8.66-13.681,12.019,12.019,0,1,1,5.638,23.358c-.53.119-1.072.178-1.608.265Zm-8.56-12.018a9.5,9.5,0,1,0,9.507-9.518A9.519,9.519,0,0,0,540.251,110.206Z"
              transform="translate(-527.939 -83.249)" fill="currentColor" stroke="currentColor" stroke-width="0.3"/>
        <path id="Path_2836" data-name="Path 2836"
              d="M559.379,127.357a1.4,1.4,0,0,1-1.186-.812,1.168,1.168,0,0,1,.249-1.4c.753-.769,1.519-1.526,2.281-2.288q1.934-1.935,3.869-3.871a1.225,1.225,0,0,1,1.353-.338,1.191,1.191,0,0,1,.827,1.04,1.162,1.162,0,0,1-.343,1.007c-2.075,2.081-4.148,4.164-6.24,6.229A3.21,3.21,0,0,1,559.379,127.357Z"
              transform="translate(-540.613 -95.976)" fill="currentColor" stroke="currentColor" stroke-width="0.3"/>
        <path id="Path_2837" data-name="Path 2837"
              d="M575.417,135.642a1.67,1.67,0,0,1-1.669,1.667,1.692,1.692,0,0,1-1.663-1.682,1.669,1.669,0,0,1,1.678-1.657A1.648,1.648,0,0,1,575.417,135.642Z"
              transform="translate(-549.358 -105.581)" fill="currentColor" stroke="currentColor" stroke-width="0.3"/>
        <path id="Path_2838" data-name="Path 2838"
              d="M560.024,120.8a1.652,1.652,0,0,1-1.649-1.677,1.663,1.663,0,1,1,3.326.029A1.648,1.648,0,0,1,560.024,120.8Z"
              transform="translate(-540.807 -95.285)" fill="currentColor" stroke="currentColor" stroke-width="0.3"/>
    </g>
</svg>