<svg xmlns="http://www.w3.org/2000/svg" width="65.999" height="65.999" viewBox="0 0 65.999 65.999">

  <g id="Group_3810" data-name="Group 3810" transform="translate(-81.633 -184)">
    <g id="Group_3773" data-name="Group 3773">
      <g id="Group_3772" data-name="Group 3772">
        <g id="Group_3771" data-name="Group 3771">
          <g id="Group_3770" data-name="Group 3770">
            <g id="Group_3769" data-name="Group 3769">
              <g id="Group_3768" data-name="Group 3768">
                <g id="Group_3767" data-name="Group 3767">
                  <path id="Path_2848" data-name="Path 2848" d="M335.854,409.435A8.362,8.362,0,0,1,328,404l-20.578-55.137a8.363,8.363,0,0,0-7.859-5.431h29.7a8.359,8.359,0,0,1,7.859,5.431L357.7,404a8.359,8.359,0,0,0,7.859,5.431Z" transform="translate(-217.925 -159.436)" fill="currentColor" opacity="0.1" style="mix-blend-mode: normal;isolation: isolate"/>
                  <g id="Icon_map-atm" data-name="Icon map-atm" transform="translate(95.057 199.85)">
                    <path id="Path_19271" data-name="Path 19271" d="M29.155,15.256,27.481,8.267a2.283,2.283,0,0,0-2.755-1.684,2.57,2.57,0,0,0-1.815,1.536c-.251.62-1.372,3.43-1.635,4.011a.724.724,0,0,1-.325.325c-.223.1-2.451,1.039-2.451,1.039v0a1.282,1.282,0,0,0,.553,2.445,1.312,1.312,0,0,0,.44-.081v0l2.958-1.229a1.674,1.674,0,0,0,.805-.778c.084-.147.341-.762.55-1.268l1.785,7.465,0,11.566a1.975,1.975,0,0,0,1.95,2.09,2.009,2.009,0,0,0,2.008-2.075l.012-13.652a16.2,16.2,0,0,0-.405-2.731Z" transform="translate(-0.653 -0.316)" fill="#243D94"/>
                    <path id="Path_19272" data-name="Path 19272" d="M25.44,3.321A2.625,2.625,0,1,1,22.816.72a2.613,2.613,0,0,1,2.624,2.6Z" transform="translate(-0.786)" fill="#243D94"/>
                    <path id="Path_19273" data-name="Path 19273" d="M17.1,17.737h0l-4.068-8.16v.007a1.852,1.852,0,0,0-1.671-1.045H7.614A1.845,1.845,0,0,0,5.76,10.375V33.823H17.31V18.658A2.149,2.149,0,0,0,17.1,17.737Z" transform="translate(0 -0.426)" fill="#243D94"/>
                  </g>
                </g>
              </g>
            </g>
          </g>
        </g>
      </g>
    </g>
  </g>
</svg>