<svg xmlns="http://www.w3.org/2000/svg" width="65.999" height="65.999" viewBox="0 0 65.999 65.999">

  <g id="Group_3810" data-name="Group 3810" transform="translate(-81.633 -184)">
    <g id="Group_3773" data-name="Group 3773">
      <g id="Group_3772" data-name="Group 3772">
        <g id="Group_3771" data-name="Group 3771">
          <g id="Group_3770" data-name="Group 3770">
            <g id="Group_3769" data-name="Group 3769">
              <g id="Group_3768" data-name="Group 3768">
                <g id="Group_3767" data-name="Group 3767">
                  <path id="Path_2848" data-name="Path 2848" d="M335.854,409.435A8.362,8.362,0,0,1,328,404l-20.578-55.137a8.363,8.363,0,0,0-7.859-5.431h29.7a8.359,8.359,0,0,1,7.859,5.431L357.7,404a8.359,8.359,0,0,0,7.859,5.431Z" transform="translate(-217.925 -159.436)" fill="currentColor" opacity="0.1" style="mix-blend-mode: normal;isolation: isolate"/>
                  <path id="Icon_material-account-balance" data-name="Icon material-account-balance" d="M6,15V25.5h4.5V15Zm9,0V25.5h4.5V15ZM3,33H31.5V28.5H3ZM24,15V25.5h4.5V15ZM17.25,1.5,3,9v3H31.5V9Z" transform="translate(96.6 198.75)" fill="#243d94"/>
                </g>
              </g>
            </g>
          </g>
        </g>
      </g>
    </g>
  </g>
</svg>