<svg xmlns="http://www.w3.org/2000/svg" width="65.999" height="65.999" viewBox="0 0 65.999 65.999">

  <g id="Group_3810" data-name="Group 3810" transform="translate(-81.633 -184)">
    <g id="Group_3773" data-name="Group 3773">
      <g id="Group_3772" data-name="Group 3772">
        <g id="Group_3771" data-name="Group 3771">
          <g id="Group_3770" data-name="Group 3770">
            <g id="Group_3769" data-name="Group 3769">
              <g id="Group_3768" data-name="Group 3768">
                <g id="Group_3767" data-name="Group 3767">
                  <path id="Path_2848" data-name="Path 2848" d="M335.854,409.435A8.362,8.362,0,0,1,328,404l-20.578-55.137a8.363,8.363,0,0,0-7.859-5.431h29.7a8.359,8.359,0,0,1,7.859,5.431L357.7,404a8.359,8.359,0,0,0,7.859,5.431Z" transform="translate(-217.925 -159.436)" fill="currentColor" opacity="0.1" style="mix-blend-mode: normal;isolation: isolate"/>
                  <path id="Icon_awesome-mobile-alt" data-name="Icon awesome-mobile-alt" d="M19.125,0H3.375A3.376,3.376,0,0,0,0,3.375v29.25A3.376,3.376,0,0,0,3.375,36h15.75A3.376,3.376,0,0,0,22.5,32.625V3.375A3.376,3.376,0,0,0,19.125,0ZM11.25,33.75A2.25,2.25,0,1,1,13.5,31.5,2.248,2.248,0,0,1,11.25,33.75Zm7.875-7.594a.846.846,0,0,1-.844.844H4.219a.846.846,0,0,1-.844-.844V4.219a.846.846,0,0,1,.844-.844H18.281a.846.846,0,0,1,.844.844Z" transform="translate(102 199)" fill="#243d94"/>
                </g>
              </g>
            </g>
          </g>
        </g>
      </g>
    </g>
  </g>
</svg>