<svg xmlns="http://www.w3.org/2000/svg" width="501.768" height="218.025" viewBox="0 0 501.768 218.025">

    <g id="Group_4183" data-name="Group 4183" opacity="0.06">
        <g id="Group_3152" data-name="Group 3152">
            <path id="Path_2794" data-name="Path 2794"
                  d="M287.454,140.832a19.8,19.8,0,0,0-18.614,12.792L220.107,283.492a19.794,19.794,0,0,1-18.614,12.792h70.333a19.8,19.8,0,0,0,18.614-12.792l48.734-129.868a19.793,19.793,0,0,1,18.614-12.792Z"
                  transform="translate(58.019 -78.264)" fill="#243d94"/>
            <path id="Path_2795" data-name="Path 2795"
                  d="M293.679,140.832a19.8,19.8,0,0,1,18.614,12.792l48.734,129.868a19.794,19.794,0,0,0,18.614,12.792H309.307a19.8,19.8,0,0,1-18.614-12.792L241.96,153.624a19.794,19.794,0,0,0-18.614-12.792Z"
                  transform="translate(122.128 -78.264)" fill="#243d94"/>
            <path id="Path_2796" data-name="Path 2796"
                  d="M171.7,181.378h15.62c.063,0,.126-.008.193-.008a29.438,29.438,0,0,1-8.5-1.369,20.146,20.146,0,0,1-7.316,1.377"
                  transform="translate(-29.391 36.643)" fill="#243d94"/>
            <path id="Path_2797" data-name="Path 2797"
                  d="M205.89,260.305l24.361-64.92-17.5-46.649H142.413l41.869,111.569a19.667,19.667,0,0,0,10.8,11.211,19.674,19.674,0,0,0,10.806-11.211"
                  transform="translate(-115.299 -55.077)" fill="#243d94"/>
            <path id="Path_2798" data-name="Path 2798"
                  d="M226.342,252.583a17.774,17.774,0,0,0-8.107,14.759,17.557,17.557,0,0,0,17.54,17.449,17.78,17.78,0,0,0,12.387-5.1L237.51,266.457Zm72.119-111.75H243.752a19.8,19.8,0,0,0-18.618,12.792l-32.181,85.757L176.4,283.493c-.173.464-.366.92-.574,1.373a19.82,19.82,0,0,1-18.036,11.415l-.008,0H212.5l0,0H228.12l-.146-.024a29.26,29.26,0,0,1-8.158-1.353c-9.85-3.123-17.768-11.325-17.768-22.209,0-.739.024-1.448.063-2.144.016-.315.043-.618.071-.924.027-.346.059-.688.1-1.023.043-.389.09-.771.149-1.149.031-.2.067-.405.1-.606.079-.433.153-.865.248-1.282,1.935-8.552,7.761-13.583,17.685-20.29-6.258-7.781-10.715-14.248-10.715-21.67,0-13.528,10.955-20.592,23.354-20.592,14.9,0,21.54,6.471,22.941,14.043a17.536,17.536,0,0,1,.291,3.214c0,6.376-2.588,10.861-7.21,15.227a98.826,98.826,0,0,1-10.727,8.343l5.2,6.372,10.7,13.107,41.165-109.7a19.8,19.8,0,0,1,18.614-12.792Zm-65.117,95.276s-9.028-8.969-9.028-16.092a9.028,9.028,0,0,1,18.055,0c0,7.124-9.028,16.092-9.028,16.092"
                  transform="translate(-70.197 -78.261)" fill="#243d94"/>
            <path id="Path_2799" data-name="Path 2799"
                  d="M249.97,140.832a19.794,19.794,0,0,1,18.614,12.792l48.734,129.868a19.794,19.794,0,0,0,18.614,12.792H265.6a19.8,19.8,0,0,1-18.614-12.792l-48.73-129.868a19.8,19.8,0,0,0-18.614-12.792Z"
                  transform="translate(-6.086 -78.264)" fill="#243d94"/>
            <path id="Path_2800" data-name="Path 2800"
                  d="M202.3,136.876s-1.92-6.184-7-9.291a17.327,17.327,0,0,0-9.063-2.659,18.048,18.048,0,0,0-8.028,2.034c-.106.047-42.691,19.369-42.691,19.369L150.967,187.5H221.3Z"
                  transform="translate(-135.52 -124.926)" fill="#243d94"/>
        </g>
    </g>
</svg>