<svg xmlns="http://www.w3.org/2000/svg" width="45.761" height="45.762" viewBox="0 0 45.761 45.762">

    <g id="Group_4201" data-name="Group 4201" transform="translate(-696.246 -217.024)">
        <path id="Path_2848" data-name="Path 2848"
              d="M324.725,389.2a5.8,5.8,0,0,1-5.449-3.766L305.007,347.2a5.8,5.8,0,0,0-5.449-3.766H320.15A5.8,5.8,0,0,1,325.6,347.2l14.27,38.23a5.8,5.8,0,0,0,5.449,3.766Z"
              transform="translate(396.688 -126.412)" fill="#243D94" opacity="0.2"
              style="mix-blend-mode: normal;isolation: isolate"/>
        <g id="Group_4166" data-name="Group 4166" transform="translate(166.864 20)">
            <g id="Group_4163" data-name="Group 4163">
                <g id="Group_4162" data-name="Group 4162" transform="translate(535.322 209.049)">
                    <g id="Group_3825" data-name="Group 3825" transform="translate(0 0)">
                        <g id="Group_3824" data-name="Group 3824">
                            <g id="Group_3823" data-name="Group 3823">
                                <g id="Group_3822" data-name="Group 3822">
                                    <g id="Group_3821" data-name="Group 3821">
                                        <g id="Group_3820" data-name="Group 3820">
                                            <g id="Group_3819" data-name="Group 3819">
                                                <g id="Group_3818" data-name="Group 3818">
                                                    <g id="Group_3817" data-name="Group 3817">
                                                        <g id="Group_3816" data-name="Group 3816">
                                                            <g id="Group_3815" data-name="Group 3815">
                                                                <g id="Group_3814" data-name="Group 3814">
                                                                    <g id="Group_3813" data-name="Group 3813">
                                                                        <g id="Group_3812" data-name="Group 3812">
                                                                            <g id="Group_3811" data-name="Group 3811">
                                                                                <g id="Group_3810"
                                                                                   data-name="Group 3810">
                                                                                    <g id="Group_3809"
                                                                                       data-name="Group 3809">
                                                                                        <g id="Group_3808"
                                                                                           data-name="Group 3808">
                                                                                            <g id="Group_3807"
                                                                                               data-name="Group 3807">
                                                                                                <g id="Group_3806"
                                                                                                   data-name="Group 3806">
                                                                                                    <path id="Path_18981"
                                                                                                          data-name="Path 18981"
                                                                                                          d="M10.373,1.01,1.125,5.463V7.779H20.278V5.45ZM19,6.5H2.4V6.265l7.99-3.847L19,6.277Z"
                                                                                                          transform="translate(-1.125 -1.01)"
                                                                                                          fill="#243d94"/>
                                                                                                    <path id="Path_18982"
                                                                                                          data-name="Path 18982"
                                                                                                          d="M3.375,28.688h16.6v1.277H3.375Z"
                                                                                                          transform="translate(-2.098 -12.981)"
                                                                                                          fill="#243d94"/>
                                                                                                    <path id="Path_18983"
                                                                                                          data-name="Path 18983"
                                                                                                          d="M1.125,32.625H20.278V33.9H1.125Z"
                                                                                                          transform="translate(-1.125 -14.682)"
                                                                                                          fill="#243d94"/>
                                                                                                    <path id="Path_18984"
                                                                                                          data-name="Path 18984"
                                                                                                          d="M3.938,15.188H5.215v6.384H3.938Z"
                                                                                                          transform="translate(-2.342 -7.142)"
                                                                                                          fill="#243d94"/>
                                                                                                    <path id="Path_18985"
                                                                                                          data-name="Path 18985"
                                                                                                          d="M29.813,15.188H31.09v6.384H29.813Z"
                                                                                                          transform="translate(-13.532 -7.142)"
                                                                                                          fill="#243d94"/>
                                                                                                    <path id="Path_18986"
                                                                                                          data-name="Path 18986"
                                                                                                          d="M23.063,15.188H24.34v6.384H23.063Z"
                                                                                                          transform="translate(-10.612 -7.142)"
                                                                                                          fill="#243d94"/>
                                                                                                    <path id="Path_18987"
                                                                                                          data-name="Path 18987"
                                                                                                          d="M10.688,15.188h1.277v6.384H10.688Z"
                                                                                                          transform="translate(-5.261 -7.142)"
                                                                                                          fill="#243d94"/>
                                                                                                    <path id="Path_18988"
                                                                                                          data-name="Path 18988"
                                                                                                          d="M16.875,15.188h1.277v6.384H16.875Z"
                                                                                                          transform="translate(-7.938 -7.142)"
                                                                                                          fill="#243d94"/>
                                                                                                </g>
                                                                                            </g>
                                                                                        </g>
                                                                                    </g>
                                                                                </g>
                                                                            </g>
                                                                        </g>
                                                                    </g>
                                                                </g>
                                                            </g>
                                                        </g>
                                                    </g>
                                                </g>
                                            </g>
                                        </g>
                                    </g>
                                </g>
                            </g>
                        </g>
                    </g>
                </g>
                <g id="Group_4169" data-name="Group 4169" transform="translate(-189.864 -28.742)">
                    <g id="__TEMP__SVG__" transform="translate(745.833 241.001)">
                        <path id="Path_19284" data-name="Path 19284"
                              d="M9,2.309H1.285a.643.643,0,0,0-.643.643V8.094a.643.643,0,0,0,.643.643H9a.643.643,0,0,0,.643-.643V2.952A.643.643,0,0,0,9,2.309ZM1.285,1.667A1.285,1.285,0,0,0,0,2.952V8.094A1.285,1.285,0,0,0,1.285,9.379H9a1.285,1.285,0,0,0,1.285-1.285V2.952A1.285,1.285,0,0,0,9,1.667Z"
                              transform="translate(0 -1.667)" fill="#243d94" fill-rule="evenodd"/>
                        <path id="Path_19285" data-name="Path 19285"
                              d="M7.26,4.488a.321.321,0,0,1,.321-.321H8.867a.321.321,0,0,1,.321.321v.643a.321.321,0,0,1-.321.321H7.582a.321.321,0,0,1-.321-.321ZM.833,6.737h9V8.023h-9Z"
                              transform="translate(-0.191 -2.239)" fill="#243d94"/>
                    </g>
                </g>
            </g>
            <g id="Group_4170" data-name="Group 4170" transform="translate(-219.365 -35.971)">
                <g id="__TEMP__SVG__2" data-name="__TEMP__SVG__" transform="translate(770.833 241.001)">
                    <path id="Path_19282" data-name="Path 19282"
                          d="M0,2.7A1.038,1.038,0,0,1,1.038,1.667H7.267A1.038,1.038,0,0,1,8.306,2.7V5.3H0Zm5.97.519a.26.26,0,0,0-.26.26V4a.26.26,0,0,0,.26.26H7.008A.26.26,0,0,0,7.267,4V3.484a.26.26,0,0,0-.26-.26Z"
                          transform="translate(0 -1.667)" fill="#179aa9" fill-rule="evenodd"/>
                    <path id="Path_19283" data-name="Path 19283"
                          d="M0,9.167v.519a1.038,1.038,0,0,0,1.038,1.038H7.267A1.038,1.038,0,0,0,8.306,9.686V9.167Z"
                          transform="translate(0 -4.495)" fill="#179aa9"/>
                </g>
            </g>
        </g>
    </g>
</svg>