<svg xmlns="http://www.w3.org/2000/svg" xmlns:xlink="http://www.w3.org/1999/xlink" width="198" height="198"
     viewBox="0 0 198 198">
    <defs>
        <filter id="Ellipse_453" x="0" y="0" width="198" height="198" filterUnits="userSpaceOnUse">
            <feOffset dy="15" input="SourceAlpha"/>
            <feGaussianBlur stdDeviation="23.5" result="blur"/>
            <feFlood flood-color="#061752"/>
            <feComposite operator="in" in2="blur"/>
            <feComposite in="SourceGraphic"/>
        </filter>
    </defs>
    <g id="Group_3724" data-name="Group 3724" transform="translate(-1143.5 -647.5)">
        <g id="Group_3723" data-name="Group 3723">
            <g transform="matrix(1, 0, 0, 1, 1143.5, 647.5)" filter="url(#Ellipse_453)">
                <circle id="Ellipse_453-2" data-name="Ellipse 453" cx="28.5" cy="28.5" r="28.5"
                        transform="translate(70.5 55.5)" fill="#243d94"/>
            </g>
            <g id="chat-bubble-outline-badged" transform="translate(1225 715.252)">
                <path id="Path_19251" data-name="Path 19251"
                      d="M33.38,12.69a7.43,7.43,0,0,1-1.89.66A10.35,10.35,0,0,1,32,16.5a11.08,11.08,0,0,1-3.71,8.11,1,1,0,0,0-.32.73v5.34l-4.38-2.79a1,1,0,0,0-.83-.11A16,16,0,0,1,18,28.5c-7.72,0-14-5.38-14-12s6.28-12,14-12a16,16,0,0,1,4.552.661A7.44,7.44,0,0,1,23,3.22a18,18,0,0,0-5-.72c-8.82,0-16,6.28-16,14s7.18,14,16,14a18,18,0,0,0,4.88-.68l5.53,3.52a1,1,0,0,0,1.54-.84V25.77a13,13,0,0,0,4-9.27,12.32,12.32,0,0,0-.57-3.81Z"
                      fill="#179aa9"/>
                <path id="Path_19252" data-name="Path 19252" d="M11,15.5a1,1,0,0,0,0,2H25a1,1,0,0,0,0-2Z"
                      fill="#179aa9"/>
                <path id="Path_19253" data-name="Path 19253" d="M14.25,20.5a1,1,0,0,0,0,2h7.5a1,1,0,0,0,0-2Z"
                      fill="#179aa9"/>
                <path id="Path_19254" data-name="Path 19254"
                      d="M10.28,11.5a1,1,0,0,0,1,1H24.72a1,1,0,0,0,.83-.47A7.53,7.53,0,0,1,24,10.5H11.28A1,1,0,0,0,10.28,11.5Z"
                      fill="#179aa9"/>
                <path id="Path_19255" data-name="Path 19255" d="M35,6a5,5,0,1,1-5-5,5,5,0,0,1,5,5Z" fill="#179aa9"/>
            </g>
        </g>
    </g>
</svg>
