<svg xmlns="http://www.w3.org/2000/svg" width="14.625" height="14.625" viewBox="0 0 14.625 14.625">
  <g id="Group_3752" data-name="Group 3752" transform="translate(-1261.464 -530.375)">
    <g id="Group_3751" data-name="Group 3751">
      <g id="Group_3750" data-name="Group 3750">
        <path id="Path_2787" data-name="Path 2787" d="M10.18,14.614a.681.681,0,0,0,0,.96l3.364,3.354a.678.678,0,0,0,.935.021l3.315-3.3a.677.677,0,1,0-.956-.96L13.991,17.49,11.14,14.61A.678.678,0,0,0,10.18,14.614Z" transform="translate(1254.785 521.48)" fill="#179aa9"/>
        <path id="Path_2788" data-name="Path 2788" d="M3.375,10.687a7.312,7.312,0,1,0,7.312-7.312A7.311,7.311,0,0,0,3.375,10.687ZM15.061,6.314A6.179,6.179,0,1,1,10.687,4.5,6.134,6.134,0,0,1,15.061,6.314Z" transform="translate(1258.089 527)" fill="#179aa9"/>
      </g>
    </g>
  </g>
</svg>
