<svg xmlns="http://www.w3.org/2000/svg" width="42.738" height="43.735" viewBox="0 0 42.738 43.735">
  <g id="Group_3275" data-name="Group 3275" transform="translate(0.002 0.5)">
    <path id="Path_2848" data-name="Path 2848" d="M323.06,386.171a5.415,5.415,0,0,1-5.089-3.517l-13.324-35.7a5.415,5.415,0,0,0-5.089-3.517h19.231a5.413,5.413,0,0,1,5.089,3.517l13.326,35.7a5.412,5.412,0,0,0,5.089,3.517Z" transform="translate(-299.558 -343.436)" fill="#fff" stroke="#fff" stroke-width="1" opacity="0.06" style="mix-blend-mode: normal;isolation: isolate"/>
    <g id="Group_3802" data-name="Group 3802" transform="translate(-541.314 -335.98)">
      <path id="Path_19265" data-name="Path 19265" d="M579.009,360.117a6.711,6.711,0,0,0-.365,1.329,9.887,9.887,0,0,1-8.267,7.2A9.7,9.7,0,0,1,561.891,366a1.717,1.717,0,0,1-.264-2.556,1.739,1.739,0,0,1,2.642.077,6.644,6.644,0,0,0,8.622.517,6.39,6.39,0,0,0,2.616-6.5,6.5,6.5,0,0,0-4.563-5.277,1.929,1.929,0,0,1-1.4-1.25,1.6,1.6,0,0,1,.421-1.679,1.733,1.733,0,0,1,1.866-.407,10.006,10.006,0,0,1,6.8,6.9c.16.512.254,1.046.378,1.569Z" transform="translate(-9.718)" fill="#fff" stroke="#fff" stroke-width="1"/>
      <path id="Path_19266" data-name="Path 19266" d="M550.446,353.789a9.933,9.933,0,0,1,5.972-4.629,1.708,1.708,0,0,1,2.213,1.158,1.69,1.69,0,0,1-1.239,2.09,6.952,6.952,0,0,0-3.815,2.778,1.68,1.68,0,0,1-2.981-.105,1.239,1.239,0,0,0-.15-.167Z" transform="translate(0 -0.235)" fill="#fff" stroke="#fff" stroke-width="1"/>
    </g>
  </g>
</svg>
