<svg xmlns="http://www.w3.org/2000/svg" xmlns:xlink="http://www.w3.org/1999/xlink" width="352.347" height="290.675" viewBox="0 0 352.347 290.675">
  <defs>
    <linearGradient id="linear-gradient" y1="0.5" x2="1" y2="0.5" gradientUnits="objectBoundingBox">
      <stop offset="0.001" stop-color="#24f9b6"/>
      <stop offset="1" stop-color="#1780a9"/>
    </linearGradient>
    <linearGradient id="linear-gradient-2" x1="-0.603" y1="0.461" x2="1.214" y2="0.505" gradientUnits="objectBoundingBox">
      <stop offset="0" stop-color="#1c97ba"/>
      <stop offset="0.335" stop-color="#13bec7"/>
      <stop offset="0.778" stop-color="#09ecd8"/>
      <stop offset="1" stop-color="#06ffdf"/>
    </linearGradient>
    <radialGradient id="radial-gradient" cx="0.52" cy="0.482" r="2.162" gradientUnits="objectBoundingBox">
      <stop offset="0" stop-color="#242a61" stop-opacity="0.502"/>
      <stop offset="0.27" stop-color="#242b66" stop-opacity="0.447"/>
      <stop offset="0.592" stop-color="#243175" stop-opacity="0.298"/>
      <stop offset="0.94" stop-color="#243b8e" stop-opacity="0.051"/>
      <stop offset="1" stop-color="#243d94" stop-opacity="0"/>
    </radialGradient>
    <radialGradient id="radial-gradient-2" cx="0.529" cy="0.581" r="2.281" gradientUnits="objectBoundingBox">
      <stop offset="0" stop-color="#242a61" stop-opacity="0.4"/>
      <stop offset="0.292" stop-color="#242966" stop-opacity="0.314"/>
      <stop offset="0.752" stop-color="#242775" stop-opacity="0.078"/>
      <stop offset="0.884" stop-color="#24277b" stop-opacity="0"/>
    </radialGradient>
  </defs>
  <g id="Group_3669" data-name="Group 3669" transform="translate(-493.06 -213.977)">
    <g id="Group_3668" data-name="Group 3668" transform="translate(546.14 214.477)">
      <g id="Group_3633" data-name="Group 3633" transform="translate(224.106 130.357)">
        <path id="Path_19225" data-name="Path 19225" d="M742.4,346.907v-1.288a6.167,6.167,0,0,1,.331-2.1,5.415,5.415,0,0,1,1.063-1.742,12.005,12.005,0,0,1,1.933-1.7,16.841,16.841,0,0,0,1.732-1.377,4.46,4.46,0,0,0,.959-1.21,2.983,2.983,0,0,0,.3-1.367,1.984,1.984,0,0,0-.836-1.724,3.991,3.991,0,0,0-2.333-.591,9.657,9.657,0,0,0-2.97.47,20.048,20.048,0,0,0-2.987,1.236l-1.9-3.815a18.328,18.328,0,0,1,3.78-1.575,15.687,15.687,0,0,1,4.459-.6,8.508,8.508,0,0,1,5.773,1.786,5.757,5.757,0,0,1,2.046,4.537,6.378,6.378,0,0,1-.461,2.534,6.251,6.251,0,0,1-1.394,1.985,20.73,20.73,0,0,1-2.325,1.925,17.891,17.891,0,0,0-1.6,1.288,2.918,2.918,0,0,0-.758,1.037,3.427,3.427,0,0,0-.2,1.244v1.046Zm-.557,5.955a2.674,2.674,0,0,1,.9-2.3,3.545,3.545,0,0,1,2.168-.662,3.487,3.487,0,0,1,2.134.662,3.347,3.347,0,0,1,0,4.562,3.372,3.372,0,0,1-2.134.7,3.426,3.426,0,0,1-2.168-.7A2.687,2.687,0,0,1,741.841,352.862Z" transform="translate(-737.696 -329.526)" fill="#fff"/>
      </g>
      <g id="Group_3634" data-name="Group 3634" transform="translate(224.106 1.928)">
        <path id="Path_19226" data-name="Path 19226" d="M752.927,272.477V268.3a19.9,19.9,0,0,1,1.073-6.8,17.513,17.513,0,0,1,3.44-5.642,38.585,38.585,0,0,1,6.261-5.5,54.937,54.937,0,0,0,5.613-4.456,14.442,14.442,0,0,0,3.1-3.922,9.659,9.659,0,0,0,.987-4.428,6.414,6.414,0,0,0-2.708-5.585q-2.707-1.917-7.559-1.917a31.437,31.437,0,0,0-9.619,1.523,65.923,65.923,0,0,0-9.674,4.005L737.7,223.23a59.255,59.255,0,0,1,12.242-5.1,50.857,50.857,0,0,1,14.441-1.947q12.07,0,18.7,5.782a18.65,18.65,0,0,1,6.627,14.7,20.643,20.643,0,0,1-1.495,8.207,20.242,20.242,0,0,1-4.513,6.431,66.687,66.687,0,0,1-7.531,6.234,58.606,58.606,0,0,0-5.189,4.173,9.509,9.509,0,0,0-2.454,3.357,11.125,11.125,0,0,0-.648,4.034v3.384Zm-1.8,19.294q0-5.3,2.9-7.448a11.506,11.506,0,0,1,7.023-2.143,11.329,11.329,0,0,1,6.912,2.143q2.9,2.145,2.9,7.448,0,5.077-2.9,7.332a10.941,10.941,0,0,1-6.912,2.257,11.107,11.107,0,0,1-7.023-2.257Q751.12,296.847,751.123,291.771Z" transform="translate(-737.696 -216.179)" fill="none" stroke="#fff" stroke-width="1"/>
      </g>
      <g id="Group_3635" data-name="Group 3635" transform="translate(0 63.555)">
        <path id="Path_19227" data-name="Path 19227" d="M571.274,386.511v-8.6a41.013,41.013,0,0,1,2.207-14,36.1,36.1,0,0,1,7.087-11.617,79.385,79.385,0,0,1,12.9-11.327,113.307,113.307,0,0,0,11.559-9.178,29.727,29.727,0,0,0,6.389-8.074,19.9,19.9,0,0,0,2.034-9.12q0-7.55-5.577-11.5T592.3,299.147a64.709,64.709,0,0,0-19.808,3.137,135.786,135.786,0,0,0-19.925,8.249L539.907,285.09a122.037,122.037,0,0,1,25.21-10.514,104.778,104.778,0,0,1,29.74-4.008q24.86,0,38.513,11.907t13.651,30.263a42.549,42.549,0,0,1-3.078,16.9,41.726,41.726,0,0,1-9.294,13.244,137.277,137.277,0,0,1-15.51,12.838,120.368,120.368,0,0,0-10.687,8.6,19.494,19.494,0,0,0-5.053,6.913,22.866,22.866,0,0,0-1.337,8.306v6.971Zm-3.718,39.732q0-10.92,5.984-15.335A23.683,23.683,0,0,1,588,406.492a23.314,23.314,0,0,1,14.231,4.416q5.982,4.417,5.982,15.335,0,10.456-5.982,15.1A22.519,22.519,0,0,1,588,445.993a22.868,22.868,0,0,1-14.463-4.648Q567.556,436.7,567.557,426.243Z" transform="translate(-539.907 -270.569)" fill="#fff"/>
      </g>
      <g id="Group_3636" data-name="Group 3636" transform="translate(151.296 176.816)">
        <path id="Path_19228" data-name="Path 19228" d="M676.76,382.816V381.9a4.331,4.331,0,0,1,.233-1.483,3.859,3.859,0,0,1,.751-1.232,8.434,8.434,0,0,1,1.366-1.2,11.94,11.94,0,0,0,1.225-.972,3.175,3.175,0,0,0,.678-.855,2.118,2.118,0,0,0,.214-.968,1.4,1.4,0,0,0-.59-1.218,2.821,2.821,0,0,0-1.65-.419,6.876,6.876,0,0,0-2.1.333,14.219,14.219,0,0,0-2.112.875l-1.342-2.7a12.9,12.9,0,0,1,2.672-1.115,11.1,11.1,0,0,1,3.151-.424,6.01,6.01,0,0,1,4.081,1.262A4.067,4.067,0,0,1,684.787,375a4.528,4.528,0,0,1-.326,1.791,4.426,4.426,0,0,1-.985,1.4,14.525,14.525,0,0,1-1.643,1.361,12.3,12.3,0,0,0-1.133.911,2.05,2.05,0,0,0-.536.732,2.438,2.438,0,0,0-.142.88v.739Zm-.394,4.21A1.894,1.894,0,0,1,677,385.4a2.516,2.516,0,0,1,1.533-.467,2.481,2.481,0,0,1,1.508.467,2.37,2.37,0,0,1,0,3.226,2.387,2.387,0,0,1-1.508.493,2.42,2.42,0,0,1-1.533-.493A1.9,1.9,0,0,1,676.366,387.026Z" transform="translate(-673.436 -370.53)" fill="#fff"/>
      </g>
      <g id="Group_3666" data-name="Group 3666" transform="translate(97.749 23.9)">
        <g id="Group_3665" data-name="Group 3665">
          <g id="Group_3644" data-name="Group 3644">
            <g id="Group_3639" data-name="Group 3639">
              <g id="Group_3638" data-name="Group 3638">
                <g id="Group_3637" data-name="Group 3637">
                  <path id="Path_19229" data-name="Path 19229" d="M723.193,251.21l-43.551-15.64L636.512,251c-5.505,2.6-10.335,4.158-10.335,9.288v25.537a96.514,96.514,0,0,0,14.207,50.825,88.431,88.431,0,0,0,39.68,35.044c17.629-5.726,30.788-20.992,38.833-34.048A96.51,96.51,0,0,0,733.1,286.82V263.854C733.1,256.541,729.228,252.969,723.193,251.21Z" transform="translate(-626.177 -235.57)" fill="url(#linear-gradient)"/>
                </g>
              </g>
            </g>
            <g id="Group_3641" data-name="Group 3641">
              <g id="Group_3640" data-name="Group 3640">
                <path id="Path_19230" data-name="Path 19230" d="M680.064,356.872A70.335,70.335,0,0,1,648.67,328.92a76.359,76.359,0,0,1-11.24-40.212V270.794c0-4.057,2.447-7.859,7.308-10.127l34.909-13.054-.007-12.043L636.512,251c-4.527,1.978-10.335,4.158-10.335,9.288v25.537a96.514,96.514,0,0,0,14.207,50.825,88.431,88.431,0,0,0,39.68,35.044Z" transform="translate(-626.177 -235.57)" fill="url(#linear-gradient-2)"/>
              </g>
            </g>
            <g id="Group_3643" data-name="Group 3643" transform="translate(53.464)">
              <g id="Group_3642" data-name="Group 3642">
                <path id="Path_19231" data-name="Path 19231" d="M673.786,371.693a52.456,52.456,0,0,0,8.557-3.669,76.8,76.8,0,0,0,18.105-14.242,97.649,97.649,0,0,0,12.595-16.922,92.912,92.912,0,0,0,13.784-51.314l.026-21.085c-.026-10.5-5.411-11.273-9.938-13.251l-43.551-15.64.007,12.043,35.318,13.264c4.861,2.27,7.308,6.071,7.308,10.128V288.92a76.369,76.369,0,0,1-11.24,40.211c-6.365,10.33-15.8,20.982-30.971,27.742Z" transform="translate(-673.363 -235.57)" fill="#1cb3ba"/>
              </g>
            </g>
          </g>
          <g id="Group_3646" data-name="Group 3646" transform="translate(17.276 28.749)">
            <g id="Group_3645" data-name="Group 3645">
              <path id="Path_19232" data-name="Path 19232" d="M642.458,283.935a13.825,13.825,0,0,1-.653-3.537,60.554,60.554,0,0,1-.355-8.67c.049-1.7.161-3.31.315-4.771a10.205,10.205,0,0,1,.973-3.854,4.424,4.424,0,0,1,1.907-1.917c.591-.274.96-.262.965-.22a4.917,4.917,0,0,0-2.391,2.378,10.6,10.6,0,0,0-.756,3.677c-.114,1.451-.2,3.05-.253,4.729-.1,3.357.007,6.4.13,8.6A21.565,21.565,0,0,1,642.458,283.935Z" transform="translate(-641.424 -260.943)" fill="#fff"/>
            </g>
          </g>
          <g id="Group_3648" data-name="Group 3648" transform="translate(18.52 58.155)">
            <g id="Group_3647" data-name="Group 3647">
              <path id="Path_19233" data-name="Path 19233" d="M642.952,291.6c-.211,0-.4-1.045-.427-2.343s.125-2.354.334-2.359.4,1.046.427,2.344S643.163,291.595,642.952,291.6Z" transform="translate(-642.523 -286.896)" fill="#fff"/>
            </g>
          </g>
          <g id="Group_3664" data-name="Group 3664" transform="translate(31.189 27.37)">
            <g id="Group_3658" data-name="Group 3658">
              <g id="Group_3654" data-name="Group 3654">
                <g id="Group_3650" data-name="Group 3650" transform="translate(5.746)">
                  <g id="Group_3649" data-name="Group 3649">
                    <path id="Path_19234" data-name="Path 19234" d="M691.832,303.324h-4.973v-27.07a11.555,11.555,0,0,0-23.111,0v27.07h-4.973v-27.07a16.528,16.528,0,0,1,33.057,0Z" transform="translate(-658.775 -259.726)" fill="#179aa9"/>
                  </g>
                </g>
                <g id="Group_3652" data-name="Group 3652" transform="translate(5.746)">
                  <g id="Group_3651" data-name="Group 3651">
                    <path id="Path_19235" data-name="Path 19235" d="M691.832,303.324h-4.973v-27.07a11.555,11.555,0,0,0-23.111,0v27.07h-4.973v-27.07a16.528,16.528,0,0,1,33.057,0Z" transform="translate(-658.775 -259.726)" fill="#fff"/>
                  </g>
                </g>
                <g id="Group_3653" data-name="Group 3653" transform="translate(0 31.556)">
                  <rect id="Rectangle_372" data-name="Rectangle 372" width="44.548" height="28.581" rx="5.811" fill="#fff"/>
                </g>
              </g>
              <g id="Group_3657" data-name="Group 3657" transform="translate(2.19 36.136)">
                <g id="Group_3656" data-name="Group 3656">
                  <g id="Group_3655" data-name="Group 3655">
                    <path id="Path_19236" data-name="Path 19236" d="M655.823,312.909c-.1,0-.186-4.767-.186-10.645s.083-10.645.186-10.645.185,4.764.185,10.645S655.925,312.909,655.823,312.909Z" transform="translate(-655.637 -291.619)" fill="#fafafa"/>
                  </g>
                </g>
              </g>
            </g>
            <g id="Group_3663" data-name="Group 3663" transform="translate(17.299 38.673)">
              <g id="Group_3659" data-name="Group 3659" transform="translate(1.636 1.044)">
                <path id="Path_19237" data-name="Path 19237" d="M677.864,298.5a3.724,3.724,0,1,0-4.74,3.565v5.568h2.031v-5.568A3.711,3.711,0,0,0,677.864,298.5Z" transform="translate(-670.416 -294.779)" fill="#243d94"/>
              </g>
              <g id="Group_3662" data-name="Group 3662">
                <g id="Group_3661" data-name="Group 3661">
                  <g id="Group_3660" data-name="Group 3660">
                    <path id="Path_19238" data-name="Path 19238" d="M671.416,303.4c-.013.018-.175-.058-.436-.247a4.54,4.54,0,0,1-.961-.979,5.218,5.218,0,0,1,1.855-7.829,4.518,4.518,0,0,1,1.3-.444,1.155,1.155,0,0,1,.5-.026,11.693,11.693,0,0,0-1.672.7,5.163,5.163,0,0,0-1.765,7.452A11.619,11.619,0,0,0,671.416,303.4Z" transform="translate(-668.972 -293.858)" fill="#243d94"/>
                  </g>
                </g>
              </g>
            </g>
          </g>
        </g>
      </g>
      <g id="Group_3667" data-name="Group 3667" transform="translate(120.466)">
        <path id="Path_19239" data-name="Path 19239" d="M652.689,238.358v-1.77a8.431,8.431,0,0,1,.454-2.884,7.459,7.459,0,0,1,1.459-2.393,16.351,16.351,0,0,1,2.657-2.334,23.39,23.39,0,0,0,2.381-1.89,6.144,6.144,0,0,0,1.317-1.663,4.1,4.1,0,0,0,.418-1.879,2.722,2.722,0,0,0-1.149-2.369,5.484,5.484,0,0,0-3.207-.812,13.3,13.3,0,0,0-4.08.646,28.043,28.043,0,0,0-4.1,1.7l-2.608-5.24a25.118,25.118,0,0,1,5.194-2.165,21.534,21.534,0,0,1,6.125-.826q5.119,0,7.933,2.452a7.914,7.914,0,0,1,2.812,6.234,8.766,8.766,0,0,1-.635,3.483,8.6,8.6,0,0,1-1.915,2.727,28.343,28.343,0,0,1-3.194,2.645,24.964,24.964,0,0,0-2.2,1.77,4.027,4.027,0,0,0-1.041,1.424,4.721,4.721,0,0,0-.275,1.711v1.436Zm-.766,8.184a3.672,3.672,0,0,1,1.233-3.158,4.874,4.874,0,0,1,2.979-.91,4.8,4.8,0,0,1,2.931.91,4.6,4.6,0,0,1,0,6.269,4.637,4.637,0,0,1-2.931.957,4.708,4.708,0,0,1-2.979-.957A3.693,3.693,0,0,1,651.923,246.542Z" transform="translate(-646.227 -214.477)" fill="none" stroke="#fff" stroke-width="1"/>
      </g>
    </g>
    <ellipse id="Ellipse_90" data-name="Ellipse 90" cx="83.491" cy="11.82" rx="83.491" ry="11.82" transform="translate(509.773 464.544)" fill="url(#radial-gradient)"/>
    <ellipse id="Ellipse_91" data-name="Ellipse 91" cx="176.174" cy="32.96" rx="176.174" ry="32.96" transform="translate(493.06 438.731)" fill="url(#radial-gradient-2)"/>
  </g>
</svg>
