<svg xmlns="http://www.w3.org/2000/svg" width="42.738" height="43.735" viewBox="0 0 42.738 43.735">
  <g id="Group_3308" data-name="Group 3308" transform="translate(0.002 0.5)">
    <path id="Path_2848" data-name="Path 2848" d="M323.06,386.171a5.415,5.415,0,0,1-5.089-3.517l-13.324-35.7a5.415,5.415,0,0,0-5.089-3.517h19.231a5.413,5.413,0,0,1,5.089,3.517l13.326,35.7a5.412,5.412,0,0,0,5.089,3.517Z" transform="translate(-299.558 -343.436)" fill="#fff" stroke="#fff" stroke-width="1" opacity="0.06" style="mix-blend-mode: normal;isolation: isolate"/>
    <path id="bx-transfer-alt" d="M28.736,15.134a1.428,1.428,0,0,0-.31-1.556L21.287,6.439,19.268,8.458l4.7,4.7H6v2.856H27.417a1.428,1.428,0,0,0,1.319-.88ZM6.109,19.752a1.428,1.428,0,0,0,.31,1.556l7.139,7.139,2.019-2.019-4.7-4.7h17.97V18.871H7.428a1.426,1.426,0,0,0-1.319.88Z" transform="translate(5.151 6.229)" fill="#fff"/>
  </g>
</svg>
